{
    "asset" : {
        "generator" : "Khronos glTF Blender I/O v1.4.40",
        "version" : "2.0"
    },
    "extensionsUsed" : [
        "KHR_lights_punctual"
    ],
    "extensionsRequired" : [
        "KHR_lights_punctual"
    ],
    "extensions" : {
        "KHR_lights_punctual" : {
            "lights" : [
                {
                    "color" : [
                        1,
                        1,
                        1
                    ],
                    "intensity" : 1,
                    "type" : "point",
                    "name" : "Point"
                },
                {
                    "color" : [
                        1,
                        1,
                        1
                    ],
                    "intensity" : 5,
                    "spot" : {
                        "innerConeAngle" : 0.12938583574002038,
                        "outerConeAngle" : 0.3591572344303131
                    },
                    "type" : "spot",
                    "name" : "Spot"
                }
            ]
        }
    },
    "scene" : 0,
    "scenes" : [
        {
            "name" : "Scene",
            "nodes" : [
                0,
                1,
                2,
                4,
                5,
                7,
                9
            ]
        }
    ],
    "nodes" : [
        {
            "mesh" : 0,
            "name" : "Box",
            "scale" : [
                1.600000023841858,
                1,
                1.600000023841858
            ]
        },
        {
            "mesh" : 1,
            "name" : "Sphere",
            "scale" : [
                0.19851917028427124,
                0.19851917028427124,
                0.19851917028427124
            ],
            "translation" : [
                0.8188140988349915,
                -0.004877645522356033,
                0.5148183703422546
            ]
        },
        {
            "mesh" : 2,
            "name" : "Cube",
            "rotation" : [
                0,
                -0.24264883995056152,
                0,
                0.9701142907142639
            ],
            "scale" : [
                0.16598747670650482,
                0.49997478723526,
                0.16598747670650482
            ],
            "translation" : [
                -1.0742228031158447,
                0,
                -0.5682933330535889
            ]
        },
        {
            "extensions" : {
                "KHR_lights_punctual" : {
                    "light" : 0
                }
            },
            "name" : "Point_Orientation",
            "rotation" : [
                -0.7071067690849304,
                0,
                0,
                0.7071067690849304
            ]
        },
        {
            "children" : [
                3
            ],
            "name" : "Point",
            "translation" : [
                0,
                1.899999976158142,
                0.2679996192455292
            ]
        },
        {
            "mesh" : 3,
            "name" : "Suzanne",
            "rotation" : [
                -0.2651040256023407,
                -0.3528229296207428,
                -0.16339635848999023,
                0.882347822189331
            ],
            "scale" : [
                0.391033411026001,
                0.391033411026001,
                0.391033411026001
            ],
            "translation" : [
                0.9692741632461548,
                -0.012249231338500977,
                -1.0558302402496338
            ]
        },
        {
            "camera" : 0,
            "name" : "Camera_Orientation",
            "rotation" : [
                -0.7071067690849304,
                0,
                0,
                0.7071067690849304
            ]
        },
        {
            "children" : [
                6
            ],
            "name" : "Camera",
            "rotation" : [
                0.7071068286895752,
                0,
                0,
                0.7071067094802856
            ],
            "translation" : [
                0,
                1,
                7
            ]
        },
        {
            "extensions" : {
                "KHR_lights_punctual" : {
                    "light" : 1
                }
            },
            "name" : "Spot_Orientation",
            "rotation" : [
                -0.7071067690849304,
                0,
                0,
                0.7071067690849304
            ]
        },
        {
            "children" : [
                8
            ],
            "name" : "Spot",
            "rotation" : [
                0.16971467435359955,
                -0.08927816897630692,
                0.4831331968307495,
                0.8542885184288025
            ],
            "translation" : [
                -1.0233184099197388,
                1.441725730895996,
                -0.5830204486846924
            ]
        }
    ],
    "cameras" : [
        {
            "name" : "Camera",
            "perspective" : {
                "aspectRatio" : 1.7777777777777777,
                "yfov" : 0.39959652046304894,
                "zfar" : 1000,
                "znear" : 0.10000000149011612
            },
            "type" : "perspective"
        }
    ],
    "materials" : [
        {
            "name" : "Wall.White",
            "pbrMetallicRoughness" : {
                "metallicFactor" : 0,
                "roughnessFactor" : 0.5
            }
        },
        {
            "name" : "Wall.Green",
            "pbrMetallicRoughness" : {
                "baseColorFactor" : [
                    0,
                    1,
                    0,
                    1
                ],
                "metallicFactor" : 0,
                "roughnessFactor" : 0.5
            }
        },
        {
            "name" : "Wall.Red",
            "pbrMetallicRoughness" : {
                "baseColorFactor" : [
                    1,
                    0,
                    0,
                    1
                ],
                "metallicFactor" : 0,
                "roughnessFactor" : 0.5
            }
        },
        {
            "doubleSided" : true,
            "name" : "Material",
            "pbrMetallicRoughness" : {
                "baseColorFactor" : [
                    0.800000011920929,
                    0.800000011920929,
                    0.800000011920929,
                    1
                ],
                "metallicFactor" : 0,
                "roughnessFactor" : 0.5
            }
        }
    ],
    "meshes" : [
        {
            "name" : "Cube.001",
            "primitives" : [
                {
                    "attributes" : {
                        "POSITION" : 0,
                        "NORMAL" : 1,
                        "TANGENT" : 2,
                        "TEXCOORD_0" : 3
                    },
                    "indices" : 4,
                    "material" : 0
                },
                {
                    "attributes" : {
                        "POSITION" : 5,
                        "NORMAL" : 6,
                        "TANGENT" : 7,
                        "TEXCOORD_0" : 8
                    },
                    "indices" : 9,
                    "material" : 1
                },
                {
                    "attributes" : {
                        "POSITION" : 10,
                        "NORMAL" : 11,
                        "TANGENT" : 12,
                        "TEXCOORD_0" : 13
                    },
                    "indices" : 14,
                    "material" : 2
                }
            ]
        },
        {
            "name" : "Sphere",
            "primitives" : [
                {
                    "attributes" : {
                        "POSITION" : 15,
                        "NORMAL" : 16,
                        "TANGENT" : 17,
                        "TEXCOORD_0" : 18
                    },
                    "indices" : 19,
                    "material" : 3
                }
            ]
        },
        {
            "name" : "Cube.002",
            "primitives" : [
                {
                    "attributes" : {
                        "POSITION" : 20,
                        "NORMAL" : 21,
                        "TANGENT" : 22,
                        "TEXCOORD_0" : 23
                    },
                    "indices" : 24,
                    "material" : 3
                }
            ]
        },
        {
            "name" : "Suzanne",
            "primitives" : [
                {
                    "attributes" : {
                        "POSITION" : 25,
                        "NORMAL" : 26,
                        "TANGENT" : 27,
                        "TEXCOORD_0" : 28
                    },
                    "indices" : 29,
                    "material" : 3
                }
            ]
        }
    ],
    "accessors" : [
        {
            "bufferView" : 0,
            "componentType" : 5126,
            "count" : 16,
            "max" : [
                1,
                2,
                1
            ],
            "min" : [
                -1,
                0,
                -1
            ],
            "type" : "VEC3"
        },
        {
            "bufferView" : 1,
            "componentType" : 5126,
            "count" : 16,
            "type" : "VEC3"
        },
        {
            "bufferView" : 2,
            "componentType" : 5126,
            "count" : 16,
            "type" : "VEC4"
        },
        {
            "bufferView" : 3,
            "componentType" : 5126,
            "count" : 16,
            "type" : "VEC2"
        },
        {
            "bufferView" : 4,
            "componentType" : 5123,
            "count" : 24,
            "type" : "SCALAR"
        },
        {
            "bufferView" : 5,
            "componentType" : 5126,
            "count" : 4,
            "max" : [
                1,
                2,
                1
            ],
            "min" : [
                1,
                0,
                -1
            ],
            "type" : "VEC3"
        },
        {
            "bufferView" : 6,
            "componentType" : 5126,
            "count" : 4,
            "type" : "VEC3"
        },
        {
            "bufferView" : 7,
            "componentType" : 5126,
            "count" : 4,
            "type" : "VEC4"
        },
        {
            "bufferView" : 8,
            "componentType" : 5126,
            "count" : 4,
            "type" : "VEC2"
        },
        {
            "bufferView" : 9,
            "componentType" : 5123,
            "count" : 6,
            "type" : "SCALAR"
        },
        {
            "bufferView" : 10,
            "componentType" : 5126,
            "count" : 4,
            "max" : [
                -1,
                2,
                1
            ],
            "min" : [
                -1,
                0,
                -1
            ],
            "type" : "VEC3"
        },
        {
            "bufferView" : 11,
            "componentType" : 5126,
            "count" : 4,
            "type" : "VEC3"
        },
        {
            "bufferView" : 12,
            "componentType" : 5126,
            "count" : 4,
            "type" : "VEC4"
        },
        {
            "bufferView" : 13,
            "componentType" : 5126,
            "count" : 4,
            "type" : "VEC2"
        },
        {
            "bufferView" : 14,
            "componentType" : 5123,
            "count" : 6,
            "type" : "SCALAR"
        },
        {
            "bufferView" : 15,
            "componentType" : 5126,
            "count" : 559,
            "max" : [
                1.000000238418579,
                2,
                1.0000004768371582
            ],
            "min" : [
                -0.9999998211860657,
                -5.960464477539063e-08,
                -0.9999998807907104
            ],
            "type" : "VEC3"
        },
        {
            "bufferView" : 16,
            "componentType" : 5126,
            "count" : 559,
            "type" : "VEC3"
        },
        {
            "bufferView" : 17,
            "componentType" : 5126,
            "count" : 559,
            "type" : "VEC4"
        },
        {
            "bufferView" : 18,
            "componentType" : 5126,
            "count" : 559,
            "type" : "VEC2"
        },
        {
            "bufferView" : 19,
            "componentType" : 5123,
            "count" : 2880,
            "type" : "SCALAR"
        },
        {
            "bufferView" : 20,
            "componentType" : 5126,
            "count" : 24,
            "max" : [
                1,
                2,
                1.0000001192092896
            ],
            "min" : [
                -1,
                0,
                -0.9999998807907104
            ],
            "type" : "VEC3"
        },
        {
            "bufferView" : 21,
            "componentType" : 5126,
            "count" : 24,
            "type" : "VEC3"
        },
        {
            "bufferView" : 22,
            "componentType" : 5126,
            "count" : 24,
            "type" : "VEC4"
        },
        {
            "bufferView" : 23,
            "componentType" : 5126,
            "count" : 24,
            "type" : "VEC2"
        },
        {
            "bufferView" : 24,
            "componentType" : 5123,
            "count" : 36,
            "type" : "SCALAR"
        },
        {
            "bufferView" : 25,
            "componentType" : 5126,
            "count" : 10457,
            "max" : [
                1.328185796737671,
                1.3754470348358154,
                1.1276999711990356
            ],
            "min" : [
                -1.328185796737671,
                -0.5356113314628601,
                -0.4730077087879181
            ],
            "type" : "VEC3"
        },
        {
            "bufferView" : 26,
            "componentType" : 5126,
            "count" : 10457,
            "type" : "VEC3"
        },
        {
            "bufferView" : 27,
            "componentType" : 5126,
            "count" : 10457,
            "type" : "VEC4"
        },
        {
            "bufferView" : 28,
            "componentType" : 5126,
            "count" : 10457,
            "type" : "VEC2"
        },
        {
            "bufferView" : 29,
            "componentType" : 5123,
            "count" : 47232,
            "type" : "SCALAR"
        }
    ],
    "bufferViews" : [
        {
            "buffer" : 0,
            "byteLength" : 192,
            "byteOffset" : 0
        },
        {
            "buffer" : 0,
            "byteLength" : 192,
            "byteOffset" : 192
        },
        {
            "buffer" : 0,
            "byteLength" : 256,
            "byteOffset" : 384
        },
        {
            "buffer" : 0,
            "byteLength" : 128,
            "byteOffset" : 640
        },
        {
            "buffer" : 0,
            "byteLength" : 48,
            "byteOffset" : 768
        },
        {
            "buffer" : 0,
            "byteLength" : 48,
            "byteOffset" : 816
        },
        {
            "buffer" : 0,
            "byteLength" : 48,
            "byteOffset" : 864
        },
        {
            "buffer" : 0,
            "byteLength" : 64,
            "byteOffset" : 912
        },
        {
            "buffer" : 0,
            "byteLength" : 32,
            "byteOffset" : 976
        },
        {
            "buffer" : 0,
            "byteLength" : 12,
            "byteOffset" : 1008
        },
        {
            "buffer" : 0,
            "byteLength" : 48,
            "byteOffset" : 1020
        },
        {
            "buffer" : 0,
            "byteLength" : 48,
            "byteOffset" : 1068
        },
        {
            "buffer" : 0,
            "byteLength" : 64,
            "byteOffset" : 1116
        },
        {
            "buffer" : 0,
            "byteLength" : 32,
            "byteOffset" : 1180
        },
        {
            "buffer" : 0,
            "byteLength" : 12,
            "byteOffset" : 1212
        },
        {
            "buffer" : 0,
            "byteLength" : 6708,
            "byteOffset" : 1224
        },
        {
            "buffer" : 0,
            "byteLength" : 6708,
            "byteOffset" : 7932
        },
        {
            "buffer" : 0,
            "byteLength" : 8944,
            "byteOffset" : 14640
        },
        {
            "buffer" : 0,
            "byteLength" : 4472,
            "byteOffset" : 23584
        },
        {
            "buffer" : 0,
            "byteLength" : 5760,
            "byteOffset" : 28056
        },
        {
            "buffer" : 0,
            "byteLength" : 288,
            "byteOffset" : 33816
        },
        {
            "buffer" : 0,
            "byteLength" : 288,
            "byteOffset" : 34104
        },
        {
            "buffer" : 0,
            "byteLength" : 384,
            "byteOffset" : 34392
        },
        {
            "buffer" : 0,
            "byteLength" : 192,
            "byteOffset" : 34776
        },
        {
            "buffer" : 0,
            "byteLength" : 72,
            "byteOffset" : 34968
        },
        {
            "buffer" : 0,
            "byteLength" : 125484,
            "byteOffset" : 35040
        },
        {
            "buffer" : 0,
            "byteLength" : 125484,
            "byteOffset" : 160524
        },
        {
            "buffer" : 0,
            "byteLength" : 167312,
            "byteOffset" : 286008
        },
        {
            "buffer" : 0,
            "byteLength" : 83656,
            "byteOffset" : 453320
        },
        {
            "buffer" : 0,
            "byteLength" : 94464,
            "byteOffset" : 536976
        }
    ],
    "buffers" : [
        {
            "byteLength" : 631440,
            "uri" : "data:application/octet-stream;base64,"
        }
    ]
}
